<?xml version="1.0" encoding="UTF-8" standalone="no"?>
<svg
   xmlns:dc="http://purl.org/dc/elements/1.1/"
   xmlns:cc="http://creativecommons.org/ns#"
   xmlns:rdf="http://www.w3.org/1999/02/22-rdf-syntax-ns#"
   xmlns:svg="http://www.w3.org/2000/svg"
   xmlns="http://www.w3.org/2000/svg"
   version="1.1"
   x="0px"
   y="0px"
   viewBox="0 0 320.78937 141.51157"
   xml:space="preserve"
   id="svg2"
   width="320.78937"
   height="141.51157"><metadata
     id="metadata52"><rdf:RDF><cc:Work
         rdf:about=""><dc:format>image/svg+xml</dc:format><dc:type
           rdf:resource="http://purl.org/dc/dcmitype/StillImage" /><dc:title></dc:title></cc:Work></rdf:RDF></metadata><defs
     id="defs50" /><style
     type="text/css"
     id="style4">
	.st0{display:none;}
	.st1{display:inline;}
	.st2{fill:#2A2A2A;}
	.st3{font-family:'Roboto-Thin';}
	.st4{font-size:52.1689px;}
	.st5{fill:none;stroke:#B3B834;stroke-miterlimit:10;}
	.st6{fill:#B3B834;}
</style><g
     id="Capa_3"
     transform="translate(-102,-179.38842)"><g
       id="XMLID_26_"><g
         id="logo_open_14_"><path
           id="XMLID_2_"
           class="st2"
           d="m 108.1,233.3 c 0,-7 1.4,-13.6 4.1,-19.7 2.7,-6.1 6.7,-11.6 12.1,-16.4 5.7,-5.3 12.2,-9.5 19.4,-12.3 7.2,-2.9 15,-5 22.8,-5.4 7.8,-0.4 18.3,0 27.3,5.9 -3.5,-0.9 -11.1,-2.6 -18.2,-2.6 -12.5,0 -23,3.9 -31.5,11.7 -8.5,7.8 -12.7,17.6 -12.7,29.3 0,11.7 4.2,21.4 12.7,29.2 8.5,7.8 18.6,11.9 31.8,11.7 13.1,-0.3 23.2,-5.2 31,-12.7 8.8,-8.6 11.9,-16.6 11.9,-28.7 0,-13.2 -8,-23.8 -14.1,-30.9 7,5 14.7,14.6 17.3,20 3,6.2 3.9,13.1 3.9,19.8 0,6.8 -1.4,13.4 -4.2,19.8 -2.8,6.4 -6.7,12 -11.8,16.8 -5.8,5.5 -12.3,9.7 -19.5,12.6 -7.2,2.9 -14.9,4.3 -23,4.3 -8.3,0 -16,-1.3 -23.1,-3.9 -7,-2.6 -13.4,-6.5 -18.9,-11.6 -5.3,-4.9 -9.5,-10.5 -12.5,-17 -3.3,-6.6 -4.8,-13.2 -4.8,-19.9 l 0,0 z"
           style="fill:#2a2a2a" /></g><text
         id="XMLID_1_"
         transform="translate(231.3336,269.6981)"
         class="st3 st4"
         style="font-size:52.16889954px;font-family:Roboto-Thin">osBrain</text>
<line
         id="XMLID_3_"
         class="st5"
         x1="104.3"
         y1="318.70001"
         x2="118.8"
         y2="280.79999"
         style="fill:none;stroke:#b3b834;stroke-miterlimit:10" /><line
         id="XMLID_4_"
         class="st5"
         x1="118.8"
         y1="280.79999"
         x2="134.5"
         y2="240.3"
         style="fill:none;stroke:#b3b834;stroke-miterlimit:10" /><line
         id="XMLID_5_"
         class="st5"
         x1="134.5"
         y1="240.3"
         x2="148.8"
         y2="276"
         style="fill:none;stroke:#b3b834;stroke-miterlimit:10" /><line
         id="XMLID_6_"
         class="st5"
         x1="148.8"
         y1="276"
         x2="163.5"
         y2="304.5"
         style="fill:none;stroke:#b3b834;stroke-miterlimit:10" /><line
         id="XMLID_7_"
         class="st5"
         x1="163.5"
         y1="304.5"
         x2="179.8"
         y2="273.5"
         style="fill:none;stroke:#b3b834;stroke-miterlimit:10" /><line
         id="XMLID_8_"
         class="st5"
         x1="179.8"
         y1="273.5"
         x2="177.7"
         y2="240.3"
         style="fill:none;stroke:#b3b834;stroke-miterlimit:10" /><line
         id="XMLID_9_"
         class="st5"
         x1="177.7"
         y1="240.3"
         x2="148.8"
         y2="276"
         style="fill:none;stroke:#b3b834;stroke-miterlimit:10" /><line
         id="XMLID_10_"
         class="st5"
         x1="148.8"
         y1="276"
         x2="118"
         y2="280.79999"
         style="fill:none;stroke:#b3b834;stroke-miterlimit:10" /><line
         id="XMLID_11_"
         class="st5"
         x1="118"
         y1="280.79999"
         x2="163.5"
         y2="304.5"
         style="fill:none;stroke:#b3b834;stroke-miterlimit:10" /><line
         id="XMLID_12_"
         class="st5"
         x1="148.8"
         y1="276"
         x2="104.3"
         y2="318.70001"
         style="fill:none;stroke:#b3b834;stroke-miterlimit:10" /><line
         id="XMLID_13_"
         class="st5"
         x1="182.8"
         y1="318.70001"
         x2="179.8"
         y2="273.5"
         style="fill:none;stroke:#b3b834;stroke-miterlimit:10" /><line
         id="XMLID_14_"
         class="st5"
         x1="182.8"
         y1="318.70001"
         x2="213.5"
         y2="271.5"
         style="fill:none;stroke:#b3b834;stroke-miterlimit:10" /><line
         id="XMLID_15_"
         class="st5"
         x1="213.5"
         y1="271.5"
         x2="179.8"
         y2="273.5"
         style="fill:none;stroke:#b3b834;stroke-miterlimit:10" /><line
         id="XMLID_16_"
         class="st5"
         x1="179.8"
         y1="273.5"
         x2="134.5"
         y2="240.3"
         style="fill:none;stroke:#b3b834;stroke-miterlimit:10" /><line
         id="XMLID_17_"
         class="st5"
         x1="179.8"
         y1="273.5"
         x2="196.7"
         y2="258.20001"
         style="fill:none;stroke:#b3b834;stroke-miterlimit:10" /><line
         id="XMLID_18_"
         class="st5"
         x1="196.7"
         y1="258.20001"
         x2="196.7"
         y2="211.3"
         style="fill:none;stroke:#b3b834;stroke-miterlimit:10" /><line
         id="XMLID_19_"
         class="st5"
         x1="196.7"
         y1="211.3"
         x2="215.3"
         y2="239"
         style="fill:none;stroke:#b3b834;stroke-miterlimit:10" /><line
         id="XMLID_20_"
         class="st5"
         x1="215.3"
         y1="239"
         x2="196.7"
         y2="258.20001"
         style="fill:none;stroke:#b3b834;stroke-miterlimit:10" /><line
         id="XMLID_21_"
         class="st5"
         x1="196.7"
         y1="258.20001"
         x2="213.5"
         y2="271.5"
         style="fill:none;stroke:#b3b834;stroke-miterlimit:10" /><line
         id="XMLID_22_"
         class="st5"
         x1="196.7"
         y1="258.20001"
         x2="177.7"
         y2="240.3"
         style="fill:none;stroke:#b3b834;stroke-miterlimit:10" /><line
         id="XMLID_23_"
         class="st5"
         x1="179.8"
         y1="273.5"
         x2="148.8"
         y2="276"
         style="fill:none;stroke:#b3b834;stroke-miterlimit:10" /><line
         id="XMLID_24_"
         class="st5"
         x1="163.5"
         y1="304.5"
         x2="213.5"
         y2="271.5"
         style="fill:none;stroke:#b3b834;stroke-miterlimit:10" /><circle
         id="XMLID_25_"
         class="st6"
         cx="134.5"
         cy="240.3"
         r="2"
         style="fill:#b3b834" /><circle
         id="XMLID_27_"
         class="st6"
         cx="177.7"
         cy="240.7"
         r="2"
         style="fill:#b3b834" /><circle
         id="XMLID_32_"
         class="st6"
         cx="148.89999"
         cy="275.60001"
         r="2"
         style="fill:#b3b834" /><circle
         id="XMLID_33_"
         class="st6"
         cx="118.7"
         cy="281"
         r="2"
         style="fill:#b3b834" /><circle
         id="XMLID_34_"
         class="st6"
         cx="179.8"
         cy="273.39999"
         r="2"
         style="fill:#b3b834" /><circle
         id="XMLID_35_"
         class="st6"
         cx="163.5"
         cy="304.70001"
         r="2"
         style="fill:#b3b834" /><circle
         id="XMLID_36_"
         class="st6"
         cx="182.7"
         cy="318.70001"
         r="2"
         style="fill:#b3b834" /><circle
         id="XMLID_37_"
         class="st6"
         cx="104"
         cy="318.89999"
         r="2"
         style="fill:#b3b834" /><circle
         id="XMLID_28_"
         class="st6"
         cx="213.2"
         cy="271.60001"
         r="2"
         style="fill:#b3b834" /><circle
         id="XMLID_29_"
         class="st6"
         cx="196.7"
         cy="258"
         r="2"
         style="fill:#b3b834" /><circle
         id="XMLID_30_"
         class="st6"
         cx="215.3"
         cy="239"
         r="2"
         style="fill:#b3b834" /><circle
         id="XMLID_31_"
         class="st6"
         cx="196.7"
         cy="211"
         r="2"
         style="fill:#b3b834" /></g></g></svg>