<?xml version="1.0" encoding="UTF-8" standalone="no"?>
<svg
   xmlns:dc="http://purl.org/dc/elements/1.1/"
   xmlns:cc="http://creativecommons.org/ns#"
   xmlns:rdf="http://www.w3.org/1999/02/22-rdf-syntax-ns#"
   xmlns:svg="http://www.w3.org/2000/svg"
   xmlns="http://www.w3.org/2000/svg"
   width="75mm"
   height="25mm"
   viewBox="0 0 265.74817 88.582677"
   id="svg4134"
   version="1.1">
  <defs
     id="defs4136" />
  <metadata
     id="metadata4139">
    <rdf:RDF>
      <cc:Work
         rdf:about="">
        <dc:format>image/svg+xml</dc:format>
        <dc:type
           rdf:resource="http://purl.org/dc/dcmitype/StillImage" />
        <dc:title></dc:title>
      </cc:Work>
    </rdf:RDF>
  </metadata>
  <g
     id="layer1"
     transform="translate(0,-963.77953)">
    <path
       style="opacity:1;fill:#5b8ab9;fill-opacity:1"
       d="m 43.531156,1014.3979 c 7.324106,-12.1799 26.006398,-16.6165 37.137316,-7.0658 9.187096,7.9578 9.553506,22.6307 3.388122,32.5194 -0.848399,2.3031 -6.084038,7.0041 -6.182852,6.0166 6.238701,-6.2171 9.361531,-16.9161 3.960578,-24.621 -6.170341,-9.4878 -21.119561,-10.8832 -29.019469,-2.7941 -7.552341,6.8482 -9.087028,20.4209 -0.941943,27.4303 4.90704,4.3166 11.982077,5.5126 18.2546,4.1617 -9.524314,4.4315 -21.872042,0.8827 -27.407699,-8.0998 -5.500996,-8.1798 -4.898126,-19.6386 0.811347,-27.5473 z m 3.253268,-14.85524 c 7.241344,11.32944 2.338382,29.05544 -10.763153,33.56454 -12.715393,4.6683 -27.4399086,-2.8821 -33.5266582,-14.4258 -1.2131231,-1.7506 -2.51120726,-7.5949 -1.89334787,-7.2978 2.68077377,8.1224 9.48132907,15.6334 18.47077307,16.15 9.701908,0.9982 19.907494,-6.6989 19.940955,-16.8114 0.628449,-12.13874 -11.750243,-22.93589 -23.711355,-20.41324 -6.4842748,1.16413 -11.6725292,6.18203 -13.9967829,12.20404 -0.35886016,-2.2844 1.722921,-6.49664 3.4869513,-8.93866 7.1009396,-9.44793 21.3379506,-10.81885 31.1496616,-5.00437 4.56099,2.51911 8.456314,6.31945 10.842956,10.97269 z m 11.9391,10.55574 c -11.902269,0.057 -24.214309,-8.8278 -25.407998,-21.1456 -1.013471,-11.0998 8.338463,-20.53324 18.507512,-23.25583 6.287003,-2.06499 13.51495,-2.48136 19.535927,0.6405 -8.577359,-1.9588 -19.036352,-0.52303 -24.423789,7.16124 -5.034653,6.78142 -4.012958,17.18907 2.616388,22.56602 9.609509,8.61827 27.225697,5.99867 32.864889,-5.97639 3.011232,-6.48692 0.603254,-14.35588 -4.124482,-19.36417 7.86128,4.97116 11.017125,15.86343 6.977885,24.25541 -4.410539,10.08732 -15.796694,15.87202 -26.546332,15.11882 z"
       id="path4147-3-9" />
    <text
       xml:space="preserve"
       style="font-style:normal;font-weight:normal;font-size:44.3932457px;line-height:125%;font-family:sans-serif;letter-spacing:0px;word-spacing:0px;fill:#666666;fill-opacity:1;stroke:none;stroke-width:1px;stroke-linecap:butt;stroke-linejoin:miter;stroke-opacity:1"
       x="95.217003"
       y="1024.5524"
       id="text4725"><tspan
         id="tspan4727"
         x="95.217003"
         y="1024.5524">osBrain</tspan></text>
  </g>
</svg>
